<?xml version="1.0" encoding="UTF-8" standalone="no"?>
<svg
   xmlns:dc="http://purl.org/dc/elements/1.1/"
   xmlns:cc="http://creativecommons.org/ns#"
   xmlns:rdf="http://www.w3.org/1999/02/22-rdf-syntax-ns#"
   xmlns:svg="http://www.w3.org/2000/svg"
   xmlns="http://www.w3.org/2000/svg"
   viewBox="0 0 337.16251 45.512501"
   height="45.512501"
   width="337.16251"
   xml:space="preserve"
   version="1.1"
   id="svg2"><metadata
     id="metadata8"><rdf:RDF><cc:Work
         rdf:about=""><dc:format>image/svg+xml</dc:format><dc:type
           rdf:resource="http://purl.org/dc/dcmitype/StillImage" /></cc:Work></rdf:RDF></metadata><defs
     id="defs6" /><g
     transform="matrix(1.25,0,0,-1.25,0,45.5125)"
     id="g10"><g
       transform="scale(0.1,0.1)"
       id="g12"><path
         id="path14"
         style="fill:#24211f;fill-opacity:1;fill-rule:nonzero;stroke:none"
         d="m 0,292.031 42.0313,0 92.9027,-166.75 88.976,166.75 38.629,0 -113.434,-207.2927 -29.828,0 L 0,292.031" /><path
         id="path16"
         style="fill:#24211f;fill-opacity:1;fill-rule:nonzero;stroke:none"
         d="m 400.395,292.031 42.05,0 92.891,-166.75 88.988,166.75 38.606,0 -113.414,-207.2927 -29.821,0 -119.3,207.2927" /><path
         id="path18"
         style="fill:#24211f;fill-opacity:1;fill-rule:nonzero;stroke:none"
         d="m 629.691,84.7383 39.118,0 26.41,48.3987 143.234,0 26.895,-48.3987 42.543,0 -122.719,207.2927 -35.699,0 L 629.691,84.7383 Z m 82.133,78.2027 54.762,98.758 55.25,-98.758 -110.012,0" /><path
         id="path20"
         style="fill:#24211f;fill-opacity:1;fill-rule:nonzero;stroke:none"
         d="m 1128.2,268.621 0,-86.754 195.75,0 c 56.6,0 72.28,-17.453 72.28,-73.449 l 0,-34.9414 C 1396.23,16.2617 1379.98,0 1323.95,0 l -181.29,0 c -56.03,0 -72.9,16.2617 -72.9,73.4766 l 0,8.4101 48.18,11.4531 0,-49.9726 231.29,0 0,93.3438 -195.15,0 c -55.41,0 -72.27,15.66 -72.27,73.465 l 0,27.148 c 0,57.824 16.86,73.496 72.27,73.496 l 165.66,0 c 51.79,0 72.87,-14.492 72.87,-68.054 l 0,-6.672 -44.55,-12.656 0,45.183 -219.86,0" /><path
         id="path22"
         style="fill:#24211f;fill-opacity:1;fill-rule:nonzero;stroke:none"
         d="m 1444.4,0 51.21,0 39.75,76.5039 210.21,0 L 1785.33,0 l 57.24,0 -172.9,310.82 -55.39,0 L 1444.4,0 Z m 112.65,116.242 83.73,159.024 83.72,-159.024 -167.45,0" /><path
         id="path24"
         style="fill:#24211f;fill-opacity:1;fill-rule:nonzero;stroke:none"
         d="m 1907.01,0 51.79,0 0,121.074 91.54,0 L 2176.86,0 l 77.11,0 -142.16,121.074 45.77,0 c 45.16,0 65.65,16.836 65.65,60.215 l 0,69.246 c 0,43.379 -20.49,60.285 -65.65,60.285 l -250.57,0 0,-310.82 z m 230.08,270.43 c 22.91,0 33.73,-5.985 33.73,-31.914 l 0,-45.188 c 0,-26.504 -10.82,-31.93 -33.73,-31.93 l -178.29,0 0,109.032 178.29,0" /><path
         id="path26"
         style="fill:#24211f;fill-opacity:1;fill-rule:nonzero;stroke:none"
         d="m 2293.11,0 51.21,0 39.72,76.5039 210.24,0 L 2634.01,0 l 57.23,0 -172.87,310.82 -55.42,0 L 2293.11,0 Z m 112.64,116.242 83.71,159.024 83.73,-159.024 -167.44,0" /><path
         id="path28"
         style="fill:#ef6918;fill-opacity:1;fill-rule:nonzero;stroke:none"
         d="m 362.164,364.094 c 5.727,0 10.613,-1.965 14.652,-5.969 4.039,-4.031 6.059,-8.816 6.059,-14.426 0,-5.828 -1.996,-10.719 -5.961,-14.668 -3.976,-3.941 -8.883,-5.926 -14.75,-5.926 -5.328,0 -10.051,2.043 -14.148,6.172 -4.106,4.18 -6.164,8.957 -6.164,14.422 0,5.461 2.058,10.254 6.164,14.328 4.097,4.043 8.82,6.067 14.148,6.067" /><path
         id="path30"
         style="fill:#ef6918;fill-opacity:1;fill-rule:nonzero;stroke:none"
         d="m 377.09,85.5273 -30.488,0 0,176.0857 -59.399,0 0,26.309 89.887,0 0,-202.3947" /><path
         id="path32"
         style="fill:#24211f;fill-opacity:1;fill-rule:nonzero;stroke:none"
         d="m 2660.15,292.883 0,-12.61 6.56,0 c 6.9,0 10.06,1.36 10.06,6.133 0,4.688 -3.16,6.477 -10.06,6.477 l -6.56,0 z m 22.07,-6.137 c 0,-4.851 -3.15,-8.512 -8.26,-9.195 l 7.83,-16.192 -6.05,0 -7.41,15.418 -8.18,0 0,-15.418 -5.28,0 0,35.106 12.86,0 c 9.71,0 14.49,-2.988 14.49,-9.719 z m 4,10.824 c -5.2,5.196 -12.02,8.004 -19.42,8.004 -7.33,0 -13.89,-2.808 -18.92,-7.84 -5.28,-5.363 -8.17,-12.175 -8.17,-19.336 0,-7.156 2.8,-13.886 8,-19.082 5.2,-5.195 11.93,-8.007 19.09,-8.007 7.16,0 14.05,2.812 19.42,8.086 5.11,4.953 7.74,11.503 7.74,18.918 0,7.41 -2.71,14.226 -7.74,19.257 z m 2.3,2.379 c 5.7,-5.703 8.77,-13.367 8.77,-21.551 0,-8.347 -3.07,-15.761 -8.77,-21.386 -5.97,-5.879 -13.72,-9.11 -21.72,-9.11 -8.1,0 -15.68,3.153 -21.47,9.032 -5.8,5.793 -8.95,13.371 -8.95,21.464 0,8.008 3.24,15.762 9.12,21.731 5.62,5.703 13.03,8.769 21.3,8.769 8.35,0 15.93,-3.066 21.72,-8.949" /></g></g></svg>